<?xml version="1.0" encoding="utf-8"?>
<!-- Generator: Adobe Illustrator 26.0.2, SVG Export Plug-In . SVG Version: 6.00 Build 0)  -->
<svg version="1.1" id="Layer_1" xmlns="http://www.w3.org/2000/svg" xmlns:xlink="http://www.w3.org/1999/xlink" x="0px" y="0px"
	 viewBox="0 0 388.29 102.34" style="enable-background:new 0 0 388.29 102.34;" xml:space="preserve">
<style type="text/css">
	.st0{fill:#EDB31F;}
	.st1{fill:none;}
</style>
<path d="M154.33,23.48l12.54,38.56l-25.53,0.01L154.33,23.48z M183.34,0v45.47L166.93,0h-25.07l-35.73,99.98h22.45l6.89-20.48h37.31
	l6.44,20.48h24.09V0H183.34z"/>
<path d="M246.57,99.98V85.74h-7.72c0,0-4.35,0.27-4.49-3.94c-0.14-4.21,0-41.9,0-41.9h12.07V26.27H234.2V0h-19.85v26.27h-10.2v13.63
	h10.06v44.62c0,0-0.69,15.8,14.14,15.46H246.57z"/>
<path d="M360.49,53.11h19.98c0,0,0.99-28.14-33.95-29.09c0,0-29.23-2.04-34.7,29.09l-0.65,15.23c0,0-0.39,34.26,35.35,33.71
	c0,0,28.93,1.35,33.82-28.68h-20.25c0,0-1.46,12.64-13.56,12.2c0,0-15.09,0.85-14.82-21.17c0,0-0.68-23.38,14.82-23.55
	C346.53,40.84,358.08,39.65,360.49,53.11"/>
<path d="M381.99,101.63c-3.48,0-6.3-2.83-6.3-6.3c0-3.48,2.83-6.31,6.3-6.31c3.48,0,6.31,2.83,6.31,6.31
	C388.29,98.8,385.46,101.63,381.99,101.63 M381.99,90.02c-2.93,0-5.3,2.38-5.3,5.31c0,2.92,2.38,5.3,5.3,5.3
	c2.93,0,5.31-2.38,5.31-5.3C387.29,92.4,384.91,90.02,381.99,90.02"/>
<path d="M381.12,94.72h0.47c1.03,0,1.49-0.15,1.49-1c0-0.86-0.46-1-1.49-1h-0.47V94.72z M381.35,91.41c1.02,0,1.8,0.03,2.35,0.32
	c0.69,0.37,1.07,1.05,1.07,1.94c0,1.03-0.49,1.76-1.4,2.07l1.67,3.32h-1.87l-1.48-3.12h-0.57v3.12h-1.69v-7.65H381.35z"/>
<path d="M261.66,55.42h29.91c0,0-0.37-14.68-14.78-14.96C276.79,40.47,263.94,38.98,261.66,55.42 M261.15,68.34
	c0,0-0.8,17.09,16.31,17.64c0,0,9.98,0.65,13.43-7.85h20.8c0,0-3.45,24.47-34.44,24.2c0,0-37.7,1.74-36.49-39.56
	c0,0-1.9-38.88,36.71-38.74c0,0,30.32-1.5,34.53,30.59l-0.85,14h-50.03"/>
<path class="st0" d="M36.03,37.46h31.95v7.34H36.03V37.46z M22.7,58.12h58.83V28.18c0,0,0.31-3.91-3.26-3.91H25.79
	c0,0-3.23,0.06-3.23,3.23L22.7,58.12z M0,77.7h13.32V17.84c0,0-0.34-3.36,2.82-3.23h70.96c0,0,3.3-0.75,3.43,2.69V77.7h13.59V10.64
	c0,0,0.95-9.48-8.74-9.48H8.94c0,0-8.56-1-8.73,8.44c0,0.1,0,0.2,0,0.3C0.2,19.65,0,77.7,0,77.7 M0,100.23V87.21h22.7V67.36h58.83
	v19.85h22.6v13.01h-27.5c0,0-7.71,0.31-8.53-8.8V81.09H35.99v10.33c0,0,0.58,8.8-8.84,8.8H0z"/>
<rect class="st1" width="388.29" height="102.34"/>
<rect class="st1" width="388.29" height="102.34"/>
</svg>
