<?xml version="1.0" encoding="utf-8"?>
<!-- Generator: Adobe Illustrator 26.0.1, SVG Export Plug-In . SVG Version: 6.00 Build 0)  -->
<svg version="1.1" xmlns="http://www.w3.org/2000/svg" xmlns:xlink="http://www.w3.org/1999/xlink" x="0px" y="0px"
	 viewBox="0 0 1728 1296" style="enable-background:new 0 0 1728 1296;" xml:space="preserve">
<style type="text/css">
	.st0{fill:#0070B5;}
	.st1{fill:#ECC190;}
</style>
<g id="Layer_2">
	<g>
		<g>
			<g>
				<path class="st0" d="M246.74,860.09h-0.19c-0.45-0.83-0.93-1.55-1.42-2.17c-0.49-0.62-1.1-1.19-1.83-1.7
					c-0.72-0.52-1.64-0.93-2.75-1.24c-1.11-0.31-2.44-0.46-3.96-0.46c-2.35,0-4.4,0.44-6.13,1.33c-1.73,0.89-3.15,2.11-4.24,3.65
					c-1.09,1.55-1.9,3.32-2.41,5.32c-0.52,2-0.77,4.16-0.77,6.47c0,5.12,1.3,9.27,3.9,12.47c2.6,3.2,6.33,4.8,11.21,4.8
					c2.43,0,4.56-0.42,6.38-1.27c1.82-0.85,3.26-1.85,4.33-3v0.37c0,0.74-0.3,1.61-0.9,2.6c-0.6,0.99-1.49,1.94-2.66,2.85
					c-1.18,0.91-2.66,1.66-4.46,2.26c-1.8,0.6-3.83,0.9-6.1,0.9c-2.72,0-5.21-0.51-7.46-1.52c-2.25-1.01-4.18-2.45-5.79-4.3
					c-1.61-1.86-2.83-4.01-3.65-6.47c-0.83-2.45-1.24-5.11-1.24-7.95c0-3.14,0.45-6.02,1.36-8.64c0.91-2.62,2.23-4.87,3.96-6.75
					c1.73-1.88,3.85-3.32,6.35-4.33c2.5-1.01,5.29-1.52,8.39-1.52c1.11,0,2.7,0.08,4.77,0.25c2.23,0.17,4.09,0.25,5.57,0.25
					L246.74,860.09z"/>
				<path class="st0" d="M322.32,860.9c0-1.94-0.08-3.55-0.25-4.83c-0.17-1.28-0.54-2.37-1.11-3.28h8.3c-0.58,0.91-0.95,2-1.12,3.28
					c-0.17,1.28-0.25,2.89-0.25,4.83v23.28c0,1.94,0.08,3.55,0.25,4.83c0.17,1.28,0.54,2.37,1.12,3.28h-8.3
					c0.58-0.91,0.95-2,1.11-3.28c0.16-1.28,0.25-2.89,0.25-4.83V860.9z"/>
				<path class="st0" d="M410.97,892.29c0.58-0.91,0.95-2,1.11-3.28c0.16-1.28,0.25-2.89,0.25-4.83v-28.29h-8.23
					c-0.83,0-1.59,0.09-2.29,0.28c-0.7,0.19-1.4,0.55-2.1,1.08l1.24-4.46h31.14c-0.45,1.2-1.38,2.01-2.78,2.45
					c-1.4,0.43-2.93,0.65-4.58,0.65h-6.81v28.29c0,1.94,0.08,3.55,0.25,4.83c0.16,1.28,0.54,2.37,1.11,3.28H410.97z"/>
				<path class="st0" d="M507.86,892.29c0.58-0.91,0.95-2,1.11-3.28c0.17-1.28,0.25-2.89,0.25-4.83v-5.63c0-1.98-0.35-3.98-1.05-6
					c-0.7-2.02-1.79-4.54-3.28-7.55c-1.28-2.6-2.65-5-4.12-7.21c-1.47-2.21-2.82-3.87-4.06-4.99h5.32c1.07,0,1.82,0.15,2.23,0.43
					c0.41,0.29,0.93,0.93,1.55,1.92c0.58,0.87,1.2,1.97,1.86,3.31c0.66,1.34,1.27,2.7,1.83,4.09c0.56,1.38,1.08,2.77,1.58,4.18
					c0.49,1.4,0.89,2.64,1.18,3.71c0.16,0.62,0.32,1.08,0.46,1.39c0.14,0.31,0.32,0.46,0.53,0.46c0.21,0,0.54-0.47,0.99-1.42
					c0.21-0.33,0.35-0.58,0.43-0.74l4.21-7.49c0.78-1.36,1.44-2.71,1.98-4.06c0.54-1.34,0.81-2.44,0.81-3.31
					c0-0.99-0.31-1.82-0.93-2.48h7.8l-7.06,10.96l-0.81,1.18c-1.2,1.86-2.12,3.32-2.75,4.4c-0.64,1.07-1.2,2.2-1.67,3.37
					c-0.48,1.18-0.84,2.49-1.08,3.93c-0.25,1.44-0.37,3.1-0.37,4.95v2.6c0,1.94,0.08,3.55,0.25,4.83c0.16,1.28,0.54,2.37,1.12,3.28
					H507.86z"/>
				<path class="st0" d="M716.3,880.09c-0.85,2.6-2.12,4.89-3.81,6.87c-1.69,1.98-3.77,3.53-6.22,4.64
					c-2.46,1.11-5.25,1.67-8.39,1.67c-3.14,0-5.9-0.51-8.3-1.52c-2.39-1.01-4.35-2.42-5.88-4.24c-1.53-1.82-2.66-3.93-3.4-6.35
					c-0.74-2.41-1.11-5.02-1.11-7.83c0-2.97,0.42-5.76,1.27-8.36c0.85-2.6,2.11-4.89,3.81-6.87c1.69-1.98,3.77-3.53,6.22-4.64
					c2.46-1.12,5.25-1.67,8.39-1.67c3.18,0,5.95,0.51,8.33,1.52c2.37,1.01,4.32,2.42,5.85,4.24c1.53,1.82,2.66,3.93,3.41,6.35
					c0.74,2.41,1.11,5.03,1.11,7.83C717.57,874.71,717.14,877.49,716.3,880.09z M710.51,866.84c-0.41-2.19-1.12-4.22-2.11-6.1
					c-0.99-1.88-2.32-3.38-3.99-4.52c-1.67-1.14-3.68-1.7-6.04-1.7c-2.15,0-4.04,0.45-5.67,1.36c-1.63,0.91-2.96,2.16-3.99,3.75
					c-1.03,1.59-1.81,3.4-2.32,5.45c-0.52,2.04-0.77,4.22-0.77,6.53c0,2.23,0.21,4.44,0.62,6.62c0.41,2.19,1.12,4.22,2.1,6.1
					c0.99,1.88,2.32,3.38,3.99,4.52c1.67,1.13,3.68,1.7,6.04,1.7c2.15,0,4.03-0.45,5.66-1.36c1.63-0.91,2.96-2.15,3.99-3.75
					c1.03-1.59,1.81-3.4,2.32-5.45c0.51-2.04,0.77-4.22,0.77-6.53C711.13,871.24,710.92,869.03,710.51,866.84z"/>
				<path class="st0" d="M794.78,884.18c0,1.94,0.08,3.55,0.25,4.83c0.16,1.28,0.54,2.37,1.11,3.28h-8.3c0.58-0.91,0.95-2,1.11-3.28
					c0.16-1.28,0.25-2.89,0.25-4.83V860.9c0-2.19-0.07-3.88-0.22-5.08c-0.14-1.2-0.49-2.21-1.02-3.03h19.19
					c0.99,0,1.71,0.03,2.17,0.09c0.45,0.06,0.68,0.22,0.68,0.46v4.83h-0.31c-0.74-1.24-1.84-2.03-3.28-2.38
					c-1.44-0.35-3.2-0.53-5.26-0.53h-6.38v15.91c3.22,0,5.93-0.02,8.14-0.06c2.21-0.04,4.34-0.17,6.41-0.37
					c-0.5,0.82-1.26,1.49-2.29,1.98c-1.03,0.5-2.16,0.84-3.37,1.05c-1.22,0.21-2.39,0.34-3.53,0.4c-1.14,0.06-2.41,0.09-3.81,0.09
					h-1.55V884.18z"/>
				<path class="st0" d="M993.17,892.29l-6.75-17.33h-13.93c-1.65,3.38-2.97,6.34-3.96,8.85c-0.99,2.52-1.49,4.56-1.49,6.13
					c0,0.74,0.06,1.53,0.19,2.35h-7.74l1.36-1.73c0.87-1.07,2.2-3.31,3.99-6.72c1.8-3.4,3.65-7.17,5.57-11.3
					c1.92-4.13,3.52-7.87,4.8-11.24c1.28-3.36,1.92-5.64,1.92-6.84l0.06-1.67h7.3c0.08,0.25,0.52,1.61,1.3,4.09
					c2.43,7.64,4.57,13.93,6.41,18.88c1.83,4.95,3.97,9.7,6.41,14.24l1.24,2.29H993.17z M981.04,859.23
					c-0.08-0.37-0.22-0.71-0.4-1.02c-0.19-0.31-0.4-0.46-0.65-0.46c-0.21,0-0.39,0.14-0.56,0.43c-0.17,0.29-0.31,0.6-0.43,0.93
					c-0.04,0.04-0.06,0.08-0.06,0.12l-5.38,13.25h11.82L981.04,859.23z"/>
				<path class="st0" d="M1100.61,852.79c-0.58,0.95-0.95,2.06-1.11,3.34c-0.17,1.28-0.25,2.89-0.25,4.83v23.28
					c0,1.94,0.08,3.54,0.25,4.8c0.16,1.26,0.54,2.34,1.11,3.25l-7.37,0.37l0.25-4.08c0-0.17-0.1-0.25-0.31-0.25
					c-0.04,0-0.14,0.08-0.31,0.25c-0.21,0.21-0.35,0.35-0.43,0.43c-1.49,1.24-3.2,2.26-5.14,3.07c-1.94,0.8-4.21,1.21-6.81,1.21
					c-3.76,0-6.7-0.84-8.82-2.51c-2.13-1.67-3.23-4.34-3.31-8.02v-21.79c0-1.94-0.08-3.55-0.25-4.83c-0.16-1.28-0.54-2.39-1.11-3.34
					h8.29c-0.58,0.95-0.95,2.06-1.11,3.34c-0.17,1.28-0.25,2.89-0.25,4.83v18.08c0.08,3.46,0.91,6.11,2.48,7.92
					c1.57,1.82,4.04,2.72,7.43,2.72c3.42,0,5.86-1,7.3-3c1.45-2,2.21-4.96,2.29-8.88c0-0.62,0.04-1.57,0.12-2.85
					c0.08-1.9,0.12-3.32,0.12-4.27v-9.72c0-1.94-0.08-3.55-0.25-4.83c-0.17-1.28-0.54-2.39-1.11-3.34H1100.61z"/>
				<path class="st0" d="M1174.76,860.9c0-1.94-0.08-3.55-0.25-4.83c-0.17-1.28-0.54-2.37-1.11-3.28c1.82,0,4.56-0.1,8.23-0.31
					c3.67-0.21,6.42-0.31,8.24-0.31c2.64,0,4.84,0.62,6.59,1.86c1.75,1.24,2.63,3.12,2.63,5.63c0,2.43-0.77,4.41-2.32,5.91
					c-1.55,1.51-3.66,2.82-6.35,3.93v0.12c1.61,0.37,3.03,0.8,4.27,1.27c1.24,0.48,2.34,1.1,3.31,1.89
					c0.97,0.78,1.73,1.77,2.29,2.94c0.56,1.18,0.84,2.57,0.84,4.18c0,2.35-0.41,4.36-1.24,6c-0.83,1.65-1.97,2.96-3.44,3.93
					c-1.46,0.97-3.14,1.66-5.01,2.08c-1.88,0.41-3.93,0.62-6.16,0.62c-1.41,0-3.49-0.04-6.25-0.12c-2.81-0.08-4.91-0.12-6.31-0.12
					c0.91-1.94,1.48-4.15,1.7-6.62c0.23-2.48,0.34-5.45,0.34-8.91V860.9z M1180.34,869.32h1.67c1.49,0,2.87-0.13,4.15-0.4
					c1.28-0.27,2.45-0.71,3.5-1.33c1.05-0.62,1.88-1.48,2.48-2.57c0.6-1.09,0.9-2.42,0.9-3.99c0-1.36-0.22-2.46-0.65-3.31
					c-0.43-0.84-1.04-1.48-1.82-1.92c-0.79-0.43-1.69-0.73-2.73-0.9c-1.03-0.16-2.25-0.25-3.65-0.25c-0.74,0-1.96,0.08-3.65,0.25
					c-0.08,0-0.14,0-0.18,0V869.32z M1180.34,881.33c0,2.15,0.03,3.71,0.09,4.67c0.06,0.97,0.22,1.76,0.46,2.38
					c0.25,0.62,0.64,1.05,1.18,1.3c0.53,0.25,1.34,0.37,2.41,0.37c3.3,0,5.83-0.72,7.58-2.17c1.75-1.44,2.63-3.75,2.63-6.93
					c0-2.02-0.34-3.67-1.02-4.95c-0.68-1.28-1.62-2.24-2.82-2.88c-1.19-0.64-2.57-1.06-4.12-1.27c-1.55-0.21-3.33-0.31-5.35-0.31
					h-1.05V881.33z"/>
				<path class="st0" d="M1305.54,852.79c-0.58,0.95-0.95,2.06-1.11,3.34c-0.17,1.28-0.25,2.89-0.25,4.83v23.28
					c0,1.94,0.08,3.54,0.25,4.8c0.16,1.26,0.54,2.34,1.11,3.25l-7.37,0.37l0.25-4.08c0-0.17-0.1-0.25-0.31-0.25
					c-0.04,0-0.14,0.08-0.31,0.25c-0.21,0.21-0.35,0.35-0.43,0.43c-1.49,1.24-3.2,2.26-5.14,3.07c-1.94,0.8-4.21,1.21-6.81,1.21
					c-3.76,0-6.7-0.84-8.82-2.51c-2.13-1.67-3.23-4.34-3.31-8.02v-21.79c0-1.94-0.08-3.55-0.25-4.83c-0.17-1.28-0.54-2.39-1.12-3.34
					h8.3c-0.58,0.95-0.95,2.06-1.11,3.34c-0.17,1.28-0.25,2.89-0.25,4.83v18.08c0.08,3.46,0.91,6.11,2.48,7.92
					c1.57,1.82,4.05,2.72,7.43,2.72c3.43,0,5.86-1,7.3-3c1.44-2,2.21-4.96,2.29-8.88c0-0.62,0.04-1.57,0.12-2.85
					c0.08-1.9,0.12-3.32,0.12-4.27v-9.72c0-1.94-0.08-3.55-0.25-4.83c-0.16-1.28-0.54-2.39-1.11-3.34H1305.54z"/>
				<path class="st0" d="M1403.43,886.53c0.95,1.28,1.74,2.27,2.38,2.97s1.58,1.63,2.82,2.79h-5.08c-1.2,0-2.16-0.27-2.88-0.8
					c-0.72-0.54-1.5-1.4-2.32-2.6l-7.55-10.77l-0.56-0.87c-1.2-1.65-2.12-2.73-2.75-3.25c-0.64-0.51-1.74-0.84-3.31-0.96v11.14
					c0,1.94,0.08,3.55,0.25,4.83c0.16,1.28,0.54,2.37,1.12,3.28h-8.61c0.7-1.11,1.15-2.3,1.36-3.56c0.21-1.26,0.31-2.9,0.31-4.92
					V860.9c0-1.94-0.08-3.55-0.25-4.83c-0.17-1.28-0.54-2.37-1.12-3.28c1.73,0,4.33-0.1,7.8-0.31c3.18-0.21,5.57-0.31,7.18-0.31
					c3.1,0,5.47,0.76,7.12,2.29c1.65,1.53,2.48,3.53,2.48,6.01c0,2.64-0.89,4.91-2.66,6.81c-1.78,1.9-3.94,3.36-6.5,4.4
					L1403.43,886.53z M1384.17,870.62c0.95,0.12,1.88,0.19,2.79,0.19c3.01,0,5.31-0.78,6.9-2.35c1.59-1.57,2.38-3.82,2.38-6.75
					c0-1.49-0.21-2.7-0.62-3.65c-0.41-0.95-1-1.66-1.76-2.14c-0.76-0.47-1.67-0.79-2.72-0.96c-1.05-0.16-2.36-0.27-3.93-0.31h-2.91
					c-0.09,1.24-0.12,2.23-0.12,2.97V870.62z"/>
				<path class="st0" d="M1475.85,892.29c0.5-1.2,0.9-2.55,1.21-4.05c0.31-1.51,0.53-3.02,0.65-4.55c0.12-1.53,0.21-3.01,0.25-4.46
					c0.04-1.44,0.06-3.12,0.06-5.02v-13.19c0-1.94-0.12-3.59-0.37-4.95c-0.25-1.36-0.79-2.46-1.61-3.28h6.25
					c0.7,0,1.21,0.05,1.52,0.16c0.31,0.1,0.63,0.38,0.96,0.83c0.33,0.46,0.75,1.08,1.27,1.89c0.52,0.8,1.23,1.91,2.14,3.31
					c0.95,1.53,1.71,2.73,2.29,3.62c0.58,0.89,1.07,1.64,1.49,2.26l12.32,17.4c0.12,0.21,0.21,0.33,0.25,0.37
					c0.5,0.74,0.85,1.11,1.05,1.11c0.21,0,0.33-0.1,0.37-0.31c0.04-0.21,0.06-0.5,0.06-0.87v-21.85c0-1.94-0.12-3.52-0.37-4.74
					c-0.25-1.22-0.62-2.28-1.12-3.19h6.44c-0.7,1.32-1.19,2.75-1.45,4.27c-0.27,1.53-0.4,3.18-0.4,4.95v24.76
					c0,1.36,0.04,3.28,0.12,5.76h-4.4l-22.66-32.25l-0.06-0.06c-0.25-0.41-0.45-0.62-0.62-0.62c-0.25,0-0.37,0.31-0.37,0.93v15.91
					c0,3.88,0.11,7.03,0.34,9.44c0.23,2.41,0.73,4.55,1.52,6.41H1475.85z"/>
			</g>
		</g>
		<g>
			<g>
				<path class="st1" d="M220.43,1028.37v-90.32h18.2v90.32H220.43z"/>
				<path class="st1" d="M279.73,1028.37v-52.83c0-1.97-0.55-3.51-1.54-4.49c-1.1-0.99-2.52-1.42-4.38-1.42
					c-0.88,0-1.75,0.11-2.85,0.22c-0.99,0.22-1.86,0.44-2.52,0.66v57.88h-16.99v-69.28h13.92l1.1,3.07c2.41-1.42,4.6-2.41,6.69-3.07
					c2.08-0.55,4.49-0.88,7.23-0.88c5.15,0,9.21,1.42,12.17,4.38c2.85,2.85,4.38,6.91,4.38,12.28v53.49H279.73z"/>
				<path class="st1" d="M336.29,1028.37l-1.43-2.74c-1.86,1.43-3.62,2.3-5.15,2.74c-1.64,0.33-3.62,0.55-6.14,0.55
					c-4.82,0-8.77-1.65-11.84-4.82c-3.18-3.18-5.04-7.56-5.7-13.15c-0.33-2.74-0.55-5.81-0.77-9.1c-0.22-3.29-0.33-6.58-0.33-9.76
					c0-3.62,0.22-7.23,0.55-10.96c0.44-3.62,0.88-6.36,1.42-8.33c1.32-4.6,3.29-8.11,6.25-10.63c2.85-2.63,6.36-3.95,10.52-3.95
					c2.41,0,4.38,0.22,5.81,0.66c1.43,0.33,2.74,0.99,3.84,1.97v-22.8h17.1v90.32H336.29z M333.33,970.27
					c-0.77-0.33-1.53-0.55-2.19-0.77c-0.77-0.22-1.42-0.33-1.97-0.33c-1.86,0-3.29,0.55-4.17,1.54c-0.99,0.99-1.53,2.74-1.75,5.15
					c-0.22,2.74-0.44,5.92-0.55,9.32c-0.11,3.4-0.22,5.81-0.22,7.12c0,3.84,0.11,7.78,0.22,11.51c0.22,3.84,0.33,6.91,0.55,8.99
					c0.22,2.19,0.88,3.73,1.64,4.6c0.77,0.88,1.97,1.32,3.62,1.32c1.32,0,2.3-0.11,2.96-0.22c0.66-0.22,1.32-0.55,1.86-1.1V970.27z"
					/>
				<path class="st1" d="M390.98,1028.37l-1.32-3.18c-1.21,1.21-3.18,2.19-5.7,2.96c-2.52,0.66-5.15,1.1-7.78,1.1
					c-5.81,0-9.97-1.53-12.72-4.49c-2.63-2.96-3.95-7.67-3.95-13.92v-51.74h17.1v52.61c0,2.08,0.44,3.73,1.43,4.71
					c0.99,0.99,2.3,1.43,4.17,1.43c0.99,0,1.97,0,3.07-0.22c0.99-0.11,1.86-0.44,2.63-0.77v-57.77h17.1v69.28H390.98z"/>
				<path class="st1" d="M446.01,1024.09c-3.4,3.18-8.22,4.82-14.25,4.82c-6.58,0-11.51-1.54-14.8-4.49
					c-3.29-3.07-4.93-7.67-4.93-13.81h13.81c0,2.52,0.44,4.39,1.32,5.48c0.99,1.21,2.3,1.75,4.06,1.75s3.07-0.44,3.84-1.32
					c0.88-0.99,1.32-2.3,1.32-4.05c0-1.64-0.88-3.4-2.74-5.37c-1.75-1.86-4.71-4.6-8.77-8.22c-5.26-4.49-8.55-8.33-9.97-11.62
					c-1.32-3.4-2.08-7.45-2.08-12.39c0-5.04,1.75-9.1,5.26-12.06c3.51-3.07,8.22-4.6,13.92-4.6c6.14,0,10.85,1.64,14.03,4.71
					c3.29,3.07,4.93,7.45,4.93,13.15h-13.59c0-1.97-0.44-3.73-1.42-4.93c-0.88-1.32-2.19-1.97-3.84-1.97c-1.43,0-2.52,0.44-3.4,1.21
					c-0.99,0.88-1.42,2.08-1.42,3.62c0,1.97,0.55,3.73,1.64,5.48c0.99,1.86,4.27,5.04,9.65,9.87c4.82,4.16,8.11,7.78,9.98,10.74
					c1.75,3.07,2.74,6.47,2.74,10.3C451.27,1016.2,449.51,1020.8,446.01,1024.09z"/>
				<path class="st1" d="M477.24,967.86v43.19c0,3.18,0.55,5.26,1.86,6.36c1.32,1.1,3.73,1.64,7.23,1.64v9.32h-9.76
					c-5.48,0-9.65-1.31-12.39-4.05c-2.85-2.74-4.27-6.91-4.27-12.61v-43.95h-6.58v-8.66h6.58v-21.04h17.32v21.04h10.52v8.77H477.24z
					"/>
				<path class="st1" d="M523.17,972.9c-1.32-0.33-2.74-0.44-4.27-0.44c-1.64,0-3.18,0.11-4.71,0.33c-1.53,0.22-2.63,0.55-3.29,1.1
					v54.48H493.9v-69.28h13.92l1.1,3.18c1.53-1.42,3.4-2.41,5.48-3.07c2.08-0.66,4.38-0.99,6.91-0.99c1.1,0,2.08,0.11,3.07,0.44
					c0.99,0.22,1.97,0.55,2.85,0.99v14.47C525.8,973.56,524.48,973.23,523.17,972.9z"/>
				<path class="st1" d="M533.25,953.83v-15.78h17.1v15.78H533.25z M533.25,1028.37v-69.28h17.1v69.28H533.25z"/>
				<path class="st1" d="M590.14,1028.37l-1.64-2.85c-1.1,1.1-2.74,1.97-4.82,2.63c-1.97,0.55-4.38,0.88-7.34,0.88
					c-5.26,0-9.54-2.3-12.93-6.8c-3.29-4.6-5.04-10.85-5.04-18.85c0-8.77,1.64-15.34,4.82-19.4c3.29-4.16,8.33-6.25,15.13-6.25
					c2.08,0,3.95,0.33,5.59,0.99c1.53,0.77,2.74,1.64,3.62,2.63v-4.93c0-2.41-0.77-4.28-2.08-5.7c-1.32-1.42-3.29-2.19-5.81-2.19
					c-2.74,0-5.15,0.33-7.34,0.88c-2.08,0.55-4.27,1.54-6.69,2.85v-10.41c2.74-1.32,5.7-2.19,8.88-2.74
					c3.18-0.55,6.47-0.88,9.97-0.88c6.14,0,10.96,1.75,14.47,5.26c3.51,3.4,5.26,8.22,5.26,14.47v50.42H590.14z M587.51,991.65
					c-0.44-1.21-0.99-2.08-1.97-2.74c-0.88-0.66-1.97-0.99-3.4-0.99c-2.3,0-4.06,1.21-5.04,3.62c-1.1,2.3-1.64,6.36-1.64,12.17
					c0,6.69,0.44,10.96,1.31,12.93c0.88,1.86,2.41,2.85,4.6,2.85c1.21,0,2.41-0.22,3.62-0.66c1.1-0.55,1.97-1.1,2.52-1.64V991.65z"
					/>
				<path class="st1" d="M627.08,1028.37c-4.17,0-7.34-1.21-9.54-3.51c-2.19-2.3-3.29-5.81-3.29-10.41v-76.4h17.1v75.63
					c0,1.97,0.44,3.29,1.32,4.17c0.88,0.77,2.63,1.21,5.15,1.21v9.32H627.08z"/>
				<path class="st1" d="M715.64,1018.5c-4.49,6.58-12.17,9.86-23.35,9.86h-21.16v-90.32h18.09c13.15,0,21.92,3.18,26.42,9.65
					c4.38,6.36,6.58,18.08,6.58,35.08C722.22,1000.09,720.03,1012.04,715.64,1018.5z M701.06,955.59c-1.53-5.15-4.38-7.67-8.55-7.67
					h-3.18v70.59h3.18c4.17,0,7.02-1.54,8.55-4.5c1.64-3.07,2.41-13.15,2.41-30.36C703.47,970.05,702.71,960.63,701.06,955.59z"/>
				<path class="st1" d="M746.88,994.61c0,10.2,0.44,16.66,1.21,19.51c0.77,2.74,2.41,4.17,4.93,4.17c1.64,0,2.96-0.55,3.73-1.64
					c0.88-0.99,1.31-2.85,1.31-5.48h12.17c0,6.14-1.53,10.63-4.71,13.48c-3.07,2.96-7.89,4.38-14.36,4.38
					c-7.13,0-12.61-2.96-16.33-8.88c-3.73-6.03-5.59-14.8-5.59-26.53c0-11.73,1.97-20.5,5.81-26.41c3.84-6.03,9.65-8.99,17.43-8.99
					c6.69,0,11.51,2.41,14.69,7.24c3.18,4.71,4.71,11.84,4.71,21.37v7.78H746.88z M756.74,972.35c-0.66-2.3-2.08-3.4-4.38-3.4
					c-2.19,0-3.73,0.99-4.38,2.96c-0.66,1.97-0.99,6.25-0.99,12.83h10.74C757.73,978.71,757.4,974.55,756.74,972.35z"/>
				<path class="st1" d="M823.71,1004.8c-0.55,1.75-1.53,3.4-2.85,5.04l-14.91,18.53h-8.22l-18.63-21.92v-47.35h16.99v48.45
					l7.67,9.32l3.62-5.15v-52.61h17.21v39.02C824.59,1000.85,824.26,1003.05,823.71,1004.8z"/>
				<path class="st1" d="M849.03,994.61c0,10.2,0.44,16.66,1.21,19.51c0.77,2.74,2.41,4.17,4.93,4.17c1.64,0,2.96-0.55,3.73-1.64
					c0.88-0.99,1.31-2.85,1.31-5.48h12.17c0,6.14-1.53,10.63-4.71,13.48c-3.07,2.96-7.89,4.38-14.36,4.38
					c-7.12,0-12.61-2.96-16.33-8.88c-3.73-6.03-5.59-14.8-5.59-26.53c0-11.73,1.97-20.5,5.81-26.41c3.84-6.03,9.65-8.99,17.43-8.99
					c6.69,0,11.51,2.41,14.69,7.24c3.18,4.71,4.71,11.84,4.71,21.37v7.78H849.03z M858.9,972.35c-0.66-2.3-2.08-3.4-4.38-3.4
					c-2.19,0-3.73,0.99-4.38,2.96c-0.66,1.97-0.99,6.25-0.99,12.83h10.74C859.88,978.71,859.55,974.55,858.9,972.35z"/>
				<path class="st1" d="M895.5,1028.37c-4.16,0-7.34-1.21-9.53-3.51c-2.19-2.3-3.29-5.81-3.29-10.41v-76.4h17.1v75.63
					c0,1.97,0.44,3.29,1.32,4.17c0.88,0.77,2.63,1.21,5.15,1.21v9.32H895.5z"/>
				<path class="st1" d="M950.42,1020.59c-3.73,5.59-9.42,8.44-17.21,8.44c-7.46,0-13.15-2.96-16.99-8.88
					c-3.73-6.03-5.7-14.8-5.7-26.53c0-12.17,1.87-21.04,5.59-26.75c3.73-5.81,9.43-8.66,17.1-8.66c8.22,0,14.03,2.96,17.65,8.66
					c3.51,5.81,5.26,14.69,5.26,26.75C956.12,1005.9,954.26,1014.88,950.42,1020.59z M937.49,972.9c-0.55-2.63-1.97-3.95-4.27-3.95
					c-2.19,0-3.62,1.31-4.17,4.16c-0.55,2.74-0.88,9.65-0.88,20.72c0,10.74,0.33,17.54,0.99,20.28c0.55,2.74,1.97,4.17,4.06,4.17
					c2.08,0,3.4-1.54,4.05-4.38c0.66-2.96,0.99-9.76,0.99-20.28C938.25,982.55,938.03,975.64,937.49,972.9z"/>
				<path class="st1" d="M1008.95,1001.73c-0.11,2.85-0.33,5.92-0.66,9.21c-0.55,5.26-2.3,9.54-5.48,12.71
					c-3.18,3.18-7.24,4.71-12.28,4.71c-2.63,0-4.71-0.11-6.47-0.44c-1.64-0.33-2.85-0.66-3.51-1.21v19.95h-16.99V959.2h14.03
					l0.99,3.18c1.97-1.54,4.06-2.63,6.36-3.29c2.3-0.55,4.82-0.88,7.56-0.88c4.49,0,8.11,1.42,10.74,4.17
					c2.63,2.85,4.28,6.79,5.04,11.84c0.22,1.97,0.44,4.5,0.66,7.78c0.11,3.29,0.22,6.58,0.22,10.08
					C1009.17,995.59,1009.06,998.88,1008.95,1001.73z M991.3,982.77c-0.11-2.63-0.33-4.93-0.55-6.91c-0.33-2.08-0.99-3.62-1.86-4.6
					c-0.88-1.1-2.19-1.64-3.95-1.64c-0.33,0-0.33,0,0-0.11c0.33-0.11-1.1,0.22-4.38,0.88v47.13c0.66,0.44,1.32,0.77,2.08,0.99
					c0.77,0.11,1.75,0.22,3.07,0.22c1.42,0,2.63-0.55,3.62-1.64c0.99-0.99,1.43-2.52,1.54-4.49c0-1.32,0.22-4.27,0.33-8.88
					c0.22-4.5,0.22-8.33,0.22-11.4C991.41,988.58,991.41,985.4,991.3,982.77z"/>
				<path class="st1" d="M1072.74,1028.37v-52.83c0-1.64-0.55-3.07-1.54-4.27c-0.99-1.1-2.3-1.64-3.95-1.64
					c-1.21,0-2.08,0.11-2.96,0.22c-0.88,0.11-1.97,0.44-3.29,0.88c0.33,0.66,0.55,1.53,0.66,2.63c0.22,1.1,0.33,2.08,0.33,3.07
					v51.96h-17.21v-52.83c0-2.08-0.44-3.62-1.43-4.49c-0.99-0.99-2.41-1.42-4.49-1.42c-0.99,0-1.75,0-2.52,0.22
					c-0.77,0.11-1.54,0.33-2.3,0.66v57.88h-16.99v-69.28h13.92l1.21,3.07c1.75-1.21,3.73-2.19,6.03-2.85c2.3-0.66,4.93-1.1,7.78-1.1
					c3.4,0,6.03,0.55,7.89,1.42c1.86,0.99,3.51,2.41,4.93,4.5c1.42-1.64,3.4-3.07,6.03-4.28c2.52-1.1,4.93-1.64,7.34-1.64
					c5.48,0,9.76,1.32,12.93,4.17c3.18,2.74,4.71,6.79,4.71,12.17v53.82H1072.74z"/>
				<path class="st1" d="M1114.94,994.61c0,10.2,0.44,16.66,1.21,19.51c0.77,2.74,2.41,4.17,4.93,4.17c1.64,0,2.96-0.55,3.73-1.64
					c0.88-0.99,1.32-2.85,1.32-5.48h12.17c0,6.14-1.53,10.63-4.71,13.48c-3.07,2.96-7.89,4.38-14.36,4.38
					c-7.12,0-12.61-2.96-16.33-8.88c-3.73-6.03-5.59-14.8-5.59-26.53c0-11.73,1.97-20.5,5.81-26.41c3.84-6.03,9.65-8.99,17.43-8.99
					c6.69,0,11.51,2.41,14.69,7.24c3.18,4.71,4.71,11.84,4.71,21.37v7.78H1114.94z M1124.81,972.35c-0.66-2.3-2.08-3.4-4.38-3.4
					c-2.19,0-3.73,0.99-4.39,2.96c-0.66,1.97-0.99,6.25-0.99,12.83h10.74C1125.79,978.71,1125.46,974.55,1124.81,972.35z"/>
				<path class="st1" d="M1175.88,1028.37v-52.83c0-1.97-0.55-3.51-1.53-4.49c-1.1-0.99-2.52-1.42-4.38-1.42
					c-0.88,0-1.75,0.11-2.85,0.22c-0.99,0.22-1.86,0.44-2.52,0.66v57.88h-16.99v-69.28h13.92l1.1,3.07c2.41-1.42,4.6-2.41,6.69-3.07
					c2.08-0.55,4.49-0.88,7.23-0.88c5.15,0,9.21,1.42,12.17,4.38c2.85,2.85,4.39,6.91,4.39,12.28v53.49H1175.88z"/>
				<path class="st1" d="M1221.92,967.86v43.19c0,3.18,0.55,5.26,1.86,6.36c1.32,1.1,3.73,1.64,7.23,1.64v9.32h-9.75
					c-5.48,0-9.65-1.31-12.39-4.05c-2.85-2.74-4.27-6.91-4.27-12.61v-43.95h-6.58v-8.66h6.58v-21.04h17.32v21.04h10.52v8.77H1221.92
					z"/>
				<path class="st1" d="M1309.71,1021.02c-4.38,4.93-11.18,7.34-20.61,7.34h-23.13v-90.32h24.99c6.47,0,11.62,1.53,15.35,4.6
					c3.73,3.07,5.59,7.34,5.59,12.82c0,5.26-1.1,9.32-3.29,12.28c-2.19,2.85-5.48,4.71-9.97,5.48c5.59,0.99,9.97,3.73,13.04,8.11
					c3.07,4.39,4.6,9.98,4.6,16.77C1316.29,1008.53,1314.1,1016.09,1309.71,1021.02z M1293.38,950.21
					c-1.64-1.64-4.27-2.41-7.78-2.41h-1.42v20.94h1.54c3.29,0,5.92-0.99,7.56-2.96c1.75-1.97,2.63-4.6,2.63-8.11
					C1295.9,954.38,1295.03,951.86,1293.38,950.21z M1295.35,983.21c-1.97-2.96-5.04-4.38-9.43-4.38h-1.75v39.57h1.54
					c4.82,0,8.11-1.64,9.86-4.82c1.75-3.29,2.63-8.77,2.63-16.44C1298.2,990.77,1297.22,986.06,1295.35,983.21z"/>
				<path class="st1" d="M1361.67,1020.59c-3.73,5.59-9.42,8.44-17.21,8.44c-7.45,0-13.15-2.96-16.99-8.88
					c-3.73-6.03-5.7-14.8-5.7-26.53c0-12.17,1.86-21.04,5.59-26.75c3.72-5.81,9.43-8.66,17.1-8.66c8.22,0,14.03,2.96,17.65,8.66
					c3.51,5.81,5.26,14.69,5.26,26.75C1367.37,1005.9,1365.51,1014.88,1361.67,1020.59z M1348.73,972.9
					c-0.55-2.63-1.97-3.95-4.27-3.95c-2.19,0-3.62,1.31-4.17,4.16c-0.55,2.74-0.88,9.65-0.88,20.72c0,10.74,0.33,17.54,0.99,20.28
					c0.55,2.74,1.97,4.17,4.06,4.17s3.4-1.54,4.06-4.38c0.66-2.96,0.99-9.76,0.99-20.28C1349.5,982.55,1349.28,975.64,1348.73,972.9
					z"/>
				<path class="st1" d="M1404.63,1028.37l-1.64-2.85c-1.1,1.1-2.74,1.97-4.82,2.63c-1.97,0.55-4.38,0.88-7.34,0.88
					c-5.26,0-9.54-2.3-12.94-6.8c-3.29-4.6-5.04-10.85-5.04-18.85c0-8.77,1.64-15.34,4.82-19.4c3.29-4.16,8.33-6.25,15.13-6.25
					c2.08,0,3.95,0.33,5.59,0.99c1.54,0.77,2.74,1.64,3.62,2.63v-4.93c0-2.41-0.77-4.28-2.08-5.7c-1.31-1.42-3.29-2.19-5.81-2.19
					c-2.74,0-5.15,0.33-7.34,0.88c-2.08,0.55-4.27,1.54-6.69,2.85v-10.41c2.74-1.32,5.7-2.19,8.88-2.74
					c3.18-0.55,6.47-0.88,9.98-0.88c6.14,0,10.96,1.75,14.47,5.26c3.51,3.4,5.26,8.22,5.26,14.47v50.42H1404.63z M1402,991.65
					c-0.44-1.21-0.99-2.08-1.97-2.74c-0.88-0.66-1.97-0.99-3.4-0.99c-2.3,0-4.06,1.21-5.04,3.62c-1.1,2.3-1.64,6.36-1.64,12.17
					c0,6.69,0.44,10.96,1.32,12.93c0.88,1.86,2.41,2.85,4.6,2.85c1.21,0,2.41-0.22,3.62-0.66c1.1-0.55,1.97-1.1,2.52-1.64V991.65z"
					/>
				<path class="st1" d="M1457.03,972.9c-1.32-0.33-2.74-0.44-4.28-0.44c-1.64,0-3.18,0.11-4.71,0.33c-1.54,0.22-2.63,0.55-3.29,1.1
					v54.48h-16.99v-69.28h13.92l1.09,3.18c1.54-1.42,3.4-2.41,5.48-3.07c2.08-0.66,4.38-0.99,6.91-0.99c1.1,0,2.08,0.11,3.07,0.44
					c0.99,0.22,1.97,0.55,2.85,0.99v14.47C1459.66,973.56,1458.34,973.23,1457.03,972.9z"/>
				<path class="st1" d="M1496.59,1028.37l-1.42-2.74c-1.86,1.43-3.62,2.3-5.15,2.74c-1.65,0.33-3.62,0.55-6.14,0.55
					c-4.82,0-8.77-1.65-11.84-4.82c-3.18-3.18-5.04-7.56-5.7-13.15c-0.33-2.74-0.55-5.81-0.77-9.1c-0.22-3.29-0.33-6.58-0.33-9.76
					c0-3.62,0.22-7.23,0.55-10.96c0.44-3.62,0.88-6.36,1.42-8.33c1.32-4.6,3.29-8.11,6.25-10.63c2.85-2.63,6.36-3.95,10.52-3.95
					c2.41,0,4.38,0.22,5.81,0.66c1.42,0.33,2.74,0.99,3.84,1.97v-22.8h17.1v90.32H1496.59z M1493.63,970.27
					c-0.77-0.33-1.54-0.55-2.19-0.77c-0.77-0.22-1.42-0.33-1.97-0.33c-1.86,0-3.29,0.55-4.17,1.54c-0.99,0.99-1.53,2.74-1.75,5.15
					c-0.22,2.74-0.44,5.92-0.55,9.32c-0.11,3.4-0.22,5.81-0.22,7.12c0,3.84,0.11,7.78,0.22,11.51c0.22,3.84,0.33,6.91,0.55,8.99
					c0.22,2.19,0.88,3.73,1.64,4.6c0.77,0.88,1.97,1.32,3.62,1.32c1.32,0,2.3-0.11,2.96-0.22c0.66-0.22,1.31-0.55,1.86-1.1V970.27z"
					/>
			</g>
		</g>
		
			<ellipse transform="matrix(0.7071 -0.7071 0.7071 0.7071 -68.7779 469.4417)" class="st1" cx="532.28" cy="317.74" rx="68.06" ry="68.06"/>
		<g>
			<path class="st0" d="M1234.09,770.33c53.03-28.34,89.08-83.78,89.08-147.56c0-92.59-75.92-167.66-169.57-167.66
				c-23.83,0-46.5,4.87-67.07,13.64V366.08H958.83v404.25H1234.09z M1149.8,559.32c37.49,0,67.87,30.39,67.87,67.87
				c0,37.48-30.39,67.87-67.87,67.87c-37.48,0-67.87-30.39-67.87-67.87C1081.93,589.71,1112.32,559.32,1149.8,559.32z"/>
			<path class="st0" d="M939.14,770.33V305.84H810.58v161.29c-20.47-8.96-43.08-13.95-66.85-13.95c-66.66,0-124.18,39.1-150.9,95.61
				V419.72H469.91v350.62H939.14z M748.59,559.32c37.49,0,67.87,30.39,67.87,67.87c0,37.48-30.39,67.87-67.87,67.87
				c-37.48,0-67.87-30.39-67.87-67.87C680.72,589.71,711.11,559.32,748.59,559.32z"/>
		</g>
	</g>
</g>
<g id="Built_By_:_Alex_Sanders_XT_Graphics">
</g>
</svg>
