<?xml version="1.0" standalone="no"?>
<!DOCTYPE svg PUBLIC "-//W3C//DTD SVG 20010904//EN"
 "http://www.w3.org/TR/2001/REC-SVG-20010904/DTD/svg10.dtd">
<svg version="1.0" xmlns="http://www.w3.org/2000/svg"
 width="2732.000000pt" height="2048.000000pt" viewBox="0 0 2732.000000 2048.000000"
 preserveAspectRatio="xMidYMid meet">

<g transform="translate(0.000000,2048.000000) scale(0.100000,-0.100000)"
fill="#ffffff" stroke="none">
<path d="M22445 19653 c-150 -32 -250 -72 -342 -134 -86 -58 -237 -229 -203
-229 11 0 221 51 290 70 41 12 831 210 837 210 1 0 3 4 3 9 0 11 -84 47 -156
66 -42 11 -106 15 -234 14 -96 -1 -184 -3 -195 -6z"/>
<path d="M8553 19513 c-3 -10 -17 -45 -31 -78 -13 -33 -53 -132 -89 -220 -35
-88 -70 -174 -78 -192 -20 -42 -19 -62 3 -57 121 27 842 210 846 215 4 4 -43
238 -61 309 l-9 35 -287 3 c-267 2 -288 1 -294 -15z"/>
<path d="M9641 19463 c-6 -38 -20 -156 -31 -263 -11 -107 -27 -253 -35 -325
-41 -375 -47 -479 -27 -546 l7 -26 225 56 225 56 21 210 c22 207 39 372 69
635 9 74 18 165 22 203 l6 67 -236 0 -235 0 -11 -67z"/>
<path d="M10535 19518 c-6 -19 -23 -163 -40 -329 -29 -298 -46 -456 -55 -519
-15 -106 -13 -140 9 -140 17 0 452 107 457 113 3 3 56 442 79 647 9 80 18 166
21 193 l6 47 -236 0 c-181 0 -238 -3 -241 -12z"/>
<path d="M11366 19512 c-8 -23 -48 -363 -91 -775 -9 -81 -14 -151 -11 -156 7
-10 19 -8 211 44 77 20 167 43 200 51 152 34 617 155 666 173 78 30 167 104
201 170 73 139 5 378 -128 453 -95 53 -147 58 -616 58 -403 0 -427 -1 -432
-18z m699 -398 c25 -23 27 -30 23 -81 -4 -49 -10 -61 -41 -90 l-37 -33 -115 0
-115 0 0 31 c0 31 18 165 25 187 3 9 36 12 118 12 109 0 115 -1 142 -26z"/>
<path d="M12741 19443 c-16 -117 -44 -373 -86 -788 -15 -149 -17 -336 -4 -349
3 -3 109 20 235 52 l229 57 3 60 c3 81 23 281 72 720 12 105 24 223 27 263 l6
72 -235 0 -235 0 -12 -87z"/>
<path d="M13636 19518 c-4 -14 -24 -186 -61 -538 -14 -129 -30 -271 -35 -314
-15 -117 -13 -136 9 -136 10 0 116 25 236 55 119 30 218 55 220 55 5 0 14 61
31 205 8 77 22 199 30 270 32 280 44 391 44 403 0 9 -54 12 -235 12 -180 0
-236 -3 -239 -12z"/>
<path d="M14466 19508 c-8 -45 -26 -185 -36 -293 -6 -60 -13 -121 -15 -135 -3
-14 -12 -92 -21 -175 -8 -82 -22 -206 -29 -275 -8 -69 -21 -190 -30 -270 -8
-80 -20 -178 -25 -218 -6 -40 -10 -75 -10 -78 0 -11 63 0 255 47 116 28 216
57 224 64 11 11 45 242 51 339 0 13 61 -2 83 -22 21 -18 62 -102 98 -198 13
-35 26 -54 37 -54 17 0 267 59 397 94 75 20 80 24 76 46 -6 45 -77 165 -120
204 l-21 19 42 22 c105 56 202 173 244 295 30 86 41 217 25 302 -17 87 -80
201 -129 232 -104 65 -196 75 -689 76 l-403 0 -4 -22z m703 -383 c34 -17 41
-32 41 -93 0 -58 -31 -106 -83 -127 -25 -10 -73 -15 -148 -15 l-111 0 6 38 c3
20 8 64 11 97 3 33 8 72 11 88 l6 27 119 0 c86 0 128 -4 148 -15z"/>
<path d="M16175 19518 c-6 -21 -46 -355 -65 -553 -6 -60 -14 -138 -19 -173 -4
-35 -4 -65 1 -68 9 -6 779 184 791 195 4 4 -6 34 -21 67 -16 32 -53 112 -83
178 -30 65 -81 173 -114 240 l-60 121 -213 3 c-165 2 -213 0 -217 -10z"/>
<path d="M17072 19458 c-6 -40 -14 -100 -17 -133 -4 -33 -13 -111 -21 -173
-12 -101 -18 -202 -11 -202 1 0 92 23 202 50 110 27 208 50 217 50 26 0 35 26
48 140 6 58 18 154 25 215 7 60 11 113 8 117 -2 5 -102 8 -222 8 l-218 0 -11
-72z"/>
<path d="M18576 19488 c-50 -401 -85 -747 -76 -752 8 -5 1364 335 1374 344 10
10 39 221 51 363 l7 87 -231 0 c-129 0 -232 -4 -236 -9 -3 -5 -17 -121 -31
-258 -14 -136 -30 -258 -35 -271 -9 -22 -9 -22 -206 -20 l-198 3 1 30 c0 17 9
95 18 175 23 192 36 311 36 333 0 16 -18 17 -234 17 l-235 0 -5 -42z"/>
<path d="M20765 19522 c-12 -8 -41 -75 -154 -354 -63 -159 -76 -198 -63 -198
16 0 462 110 724 179 65 17 121 31 124 31 3 0 3 12 -1 28 -4 15 -20 89 -35
164 -16 76 -32 142 -35 148 -7 12 -544 14 -560 2z"/>
<path d="M23496 19522 c-2 -4 -7 -37 -11 -72 -4 -36 -13 -117 -20 -180 -8 -63
-21 -178 -30 -255 -8 -77 -22 -201 -30 -275 -9 -74 -22 -196 -30 -270 -34
-311 -45 -409 -54 -480 -6 -41 -11 -85 -11 -97 l0 -23 230 0 c230 0 230 0 239
23 5 12 17 92 25 177 9 85 19 169 21 185 7 39 210 258 219 235 24 -67 176
-535 176 -542 0 -6 7 -25 16 -44 l16 -34 284 0 c156 0 284 2 284 5 0 12 -251
629 -300 740 -11 23 -81 195 -100 243 -15 37 -19 30 96 152 39 41 108 116 154
165 46 50 115 124 154 165 131 139 128 135 120 164 l-6 26 -284 0 -283 0 -221
-259 c-121 -143 -225 -263 -230 -266 -6 -3 -10 0 -10 7 0 22 29 298 40 376 6
40 10 89 10 108 l0 34 -229 0 c-127 0 -232 -4 -235 -8z"/>
<path d="M25860 19509 c-47 -11 -150 -36 -230 -55 -80 -19 -157 -40 -172 -45
-50 -20 -141 -149 -174 -249 -26 -78 -26 -236 0 -305 54 -140 178 -242 356
-295 188 -56 279 -95 304 -132 9 -12 16 -40 16 -61 0 -114 -144 -183 -260
-124 -57 28 -86 83 -96 178 l-7 69 -226 -2 -226 -3 2 -100 c3 -127 17 -192 58
-280 67 -144 138 -193 315 -220 142 -21 375 -20 471 3 92 22 189 75 246 134
188 196 248 470 149 681 -60 125 -224 224 -480 287 -118 30 -184 62 -192 96
-15 58 39 104 126 111 88 6 150 -52 160 -152 l5 -50 223 -3 222 -2 0 99 c0
164 -60 309 -152 367 -111 70 -283 91 -438 53z"/>
<path d="M22890 19406 c-25 -8 -106 -28 -180 -45 -74 -18 -198 -48 -275 -66
-168 -41 -401 -96 -509 -121 -99 -23 -106 -33 -166 -244 -47 -165 -54 -502
-12 -626 87 -261 214 -376 462 -419 109 -19 187 -19 291 1 180 33 297 100 399
229 51 64 156 269 166 323 l7 32 -226 0 -225 0 -26 -44 c-52 -89 -145 -136
-243 -122 -109 15 -155 82 -161 238 -5 116 12 277 39 363 36 118 97 199 175
231 47 20 132 18 174 -4 39 -21 100 -103 100 -136 0 -11 5 -38 11 -58 l10 -38
245 0 246 0 -4 128 c-4 112 -7 134 -31 186 -35 77 -67 117 -129 166 -54 43
-69 46 -138 26z"/>
<path d="M8940 19004 c-107 -24 -224 -50 -260 -58 -350 -77 -320 -67 -340
-106 -41 -82 -410 -940 -410 -954 0 -14 30 -16 238 -16 l239 0 16 38 c10 20
32 78 50 127 l33 90 216 3 c200 2 217 1 222 -15 3 -10 12 -64 20 -121 9 -57
18 -108 21 -113 7 -11 405 -13 405 -1 0 4 -16 90 -36 192 -19 102 -48 255 -65
340 -130 682 -119 634 -139 637 -8 1 -103 -18 -210 -43z m-88 -249 c12 -82 22
-163 22 -180 l1 -30 -102 -3 c-79 -2 -103 0 -103 10 0 7 32 102 72 211 83 226
75 226 110 -8z"/>
<path d="M21289 19035 c-3 -2 -39 -11 -80 -20 -161 -33 -194 -42 -191 -54 2
-12 7 -42 41 -276 11 -71 17 -133 15 -137 -3 -5 -52 -8 -110 -8 -80 0 -104 3
-104 13 0 8 32 98 70 202 39 104 70 194 70 202 0 9 -8 12 -22 8 -168 -38 -305
-68 -357 -78 l-64 -12 -43 -90 c-23 -49 -94 -211 -158 -360 -64 -148 -121
-279 -126 -290 -26 -57 -50 -115 -50 -119 0 -3 -13 -34 -30 -68 -16 -34 -30
-65 -30 -70 0 -4 107 -8 239 -8 l239 0 15 33 c8 17 29 73 47 122 18 50 37 96
43 103 7 9 63 12 218 12 l209 0 10 -26 c6 -14 15 -66 20 -116 16 -138 -2 -128
225 -128 166 0 195 2 195 15 0 14 -21 128 -75 400 -13 66 -42 217 -65 335 -23
118 -50 258 -61 312 -10 53 -19 99 -19 102 0 7 -65 8 -71 1z"/>
<path d="M19805 18953 c-11 -3 -85 -20 -165 -39 -80 -19 -174 -41 -210 -50
-36 -8 -92 -22 -125 -29 -450 -107 -809 -196 -817 -203 -7 -7 -25 -158 -53
-427 -8 -77 -19 -174 -24 -215 -6 -41 -11 -85 -11 -97 l0 -23 229 0 c141 0
232 4 236 10 7 11 26 173 50 415 9 88 20 174 24 190 l7 30 200 0 199 0 -3 -55
c-1 -30 -9 -109 -17 -175 -16 -134 -45 -393 -45 -406 0 -5 105 -9 234 -9 l235
0 5 43 c11 82 35 294 51 432 32 296 64 594 65 608 0 8 -32 8 -65 0z"/>
<path d="M17185 18914 c-259 -63 -263 -64 -269 -87 -3 -12 -6 -34 -6 -49 0
-43 -15 -40 -38 8 -18 37 -26 44 -44 39 -83 -18 -379 -89 -609 -145 -92 -22
-173 -40 -181 -40 -8 0 -22 -6 -32 -13 -18 -13 -23 -41 -61 -402 -8 -77 -19
-178 -25 -225 -5 -47 -10 -95 -10 -107 l0 -23 220 0 220 0 4 23 c13 61 47 356
71 601 7 76 17 142 23 148 6 6 15 -3 25 -24 8 -18 41 -87 72 -153 56 -116 112
-235 178 -379 18 -39 48 -102 68 -140 l36 -71 216 -3 216 -2 5 32 c5 31 14
108 50 443 9 77 21 183 27 235 14 131 39 353 39 363 0 14 -55 6 -195 -29z"/>
<path d="M12185 18713 c-47 -11 -564 -137 -710 -174 -229 -57 -223 -55 -230
-92 -11 -72 -54 -497 -55 -544 l0 -33 388 0 c340 0 402 2 512 20 69 11 142 27
163 35 85 34 194 139 242 234 55 109 72 287 35 368 -43 95 -187 194 -279 192
-25 -1 -55 -3 -66 -6z m-159 -196 c81 -43 65 -173 -27 -219 -26 -13 -62 -17
-161 -18 l-128 0 0 27 c0 32 20 203 26 222 6 20 247 11 290 -12z"/>
<path d="M10780 18528 c-332 -79 -366 -88 -375 -104 -36 -59 -83 -108 -119
-125 -73 -33 -182 -19 -228 30 -14 16 -23 18 -55 10 -21 -5 -78 -19 -128 -30
-49 -12 -117 -27 -150 -35 -33 -8 -84 -19 -112 -25 -34 -8 -53 -17 -53 -26 0
-8 16 -48 35 -90 47 -101 154 -210 238 -241 54 -20 76 -22 315 -22 283 0 290
1 406 68 109 64 223 199 274 326 24 60 72 237 72 269 0 21 -13 21 -120 -5z"/>
<path d="M13915 18536 c-27 -7 -104 -25 -170 -41 -66 -15 -133 -31 -150 -35
-16 -5 -42 -11 -57 -14 -19 -4 -34 -19 -47 -44 -25 -48 -66 -87 -113 -106 -71
-30 -169 -15 -212 33 -12 13 -27 19 -40 16 -12 -2 -50 -11 -86 -19 -36 -9
-105 -25 -155 -36 -175 -40 -225 -55 -225 -64 0 -22 35 -104 65 -151 42 -66
128 -145 190 -176 49 -23 57 -24 318 -27 250 -3 272 -2 323 18 156 58 289 187
365 355 31 68 79 241 79 282 0 27 -12 28 -85 9z"/>
<path d="M15455 18266 c-44 -12 -183 -44 -330 -78 -27 -6 -54 -15 -58 -18 -9
-8 31 -144 70 -237 l26 -63 258 0 c142 0 260 4 263 8 3 5 -25 97 -61 205 -75
222 -64 210 -168 183z"/>
<path d="M14765 18095 c-27 -7 -122 -30 -210 -50 -88 -21 -166 -44 -174 -51
-7 -6 -16 -33 -18 -58 l-6 -46 239 2 239 3 6 55 c20 169 20 160 -4 159 -12 0
-44 -7 -72 -14z"/>
</g>
</svg>
